<mxfile host="Electron" modified="2024-03-24T21:49:05.303Z" agent="Mozilla/5.0 (Windows NT 10.0; Win64; x64) AppleWebKit/537.36 (KHTML, like Gecko) draw.io/21.6.8 Chrome/114.0.5735.289 Electron/25.5.0 Safari/537.36" etag="SaO3em2oe1LEjN1sNEL7" version="21.6.8" type="device">
  <diagram name="Страница — 1" id="_NNJ8Qyopue1inblywc9">
    <mxGraphModel dx="430" dy="515" grid="1" gridSize="10" guides="1" tooltips="1" connect="1" arrows="1" fold="1" page="1" pageScale="1" pageWidth="827" pageHeight="1169" math="0" shadow="0">
      <root>
        <mxCell id="0" />
        <mxCell id="1" parent="0" />
        <mxCell id="Faq8xng280zrM9as-v0_-33" style="edgeStyle=orthogonalEdgeStyle;rounded=0;orthogonalLoop=1;jettySize=auto;html=1;exitX=0.5;exitY=1;exitDx=0;exitDy=0;entryX=0.5;entryY=0;entryDx=0;entryDy=0;" edge="1" parent="1" source="gyxe0gYEYOUFi3LcDs3f-1" target="Faq8xng280zrM9as-v0_-11">
          <mxGeometry relative="1" as="geometry" />
        </mxCell>
        <mxCell id="gyxe0gYEYOUFi3LcDs3f-1" value="" style="shape=parallelogram;perimeter=parallelogramPerimeter;whiteSpace=wrap;html=1;fixedSize=1;" parent="1" vertex="1">
          <mxGeometry x="45.01" y="10" width="130" height="40" as="geometry" />
        </mxCell>
        <mxCell id="Faq8xng280zrM9as-v0_-8" value="" style="shape=parallelogram;perimeter=parallelogramPerimeter;whiteSpace=wrap;html=1;fixedSize=1;" vertex="1" parent="1">
          <mxGeometry x="60" y="150" width="100" height="30" as="geometry" />
        </mxCell>
        <mxCell id="Faq8xng280zrM9as-v0_-34" style="edgeStyle=orthogonalEdgeStyle;rounded=0;orthogonalLoop=1;jettySize=auto;html=1;entryX=0.5;entryY=0;entryDx=0;entryDy=0;" edge="1" parent="1" source="Faq8xng280zrM9as-v0_-11" target="Faq8xng280zrM9as-v0_-8">
          <mxGeometry relative="1" as="geometry" />
        </mxCell>
        <mxCell id="Faq8xng280zrM9as-v0_-11" value="" style="rounded=0;whiteSpace=wrap;html=1;" vertex="1" parent="1">
          <mxGeometry x="10" y="80" width="200" height="40" as="geometry" />
        </mxCell>
        <mxCell id="Faq8xng280zrM9as-v0_-28" value="" style="shape=image;verticalLabelPosition=bottom;labelBackgroundColor=default;verticalAlign=top;aspect=fixed;imageAspect=0;image=data:image/png,iVBORw0KGgoAAAANSUhEUgAAAQgAAAAmCAYAAAA4JwUNAAAAAXNSR0IArs4c6QAAAARnQU1BAACxjwv8YQUAAAAJcEhZcwAADsMAAA7DAcdvqGQAAAldSURBVHhe7ZxJixTBEsfL9wGE0auIqAdFQVERUREUXPAsjuJFUAQ9KrjhxZMLenX5BK4HD+6CghvuKCqe9ODBkyL6BXz9y8m/E1NmVlcvr2e6X/wgyZiqrsyMjMiozM7smfSnQeE4jpPgPzF3HMf5Bw8QjuNk8QDhOE4WDxBOz7h48WIxe/bsYtKkScWGDRvi1RHevXsXrnFvz5498aoz3niA6BCcGae2CWd3xkJwOH36dPH8+fNieHi4uHPnTrgGP378KFavXh2uwYwZM0L+/44Cpk30VU9hF8PpjEePHrETFNLQ0FC86lg+f/4cEqi/du/e/ef79+9/lixZEhL3ybnvjGB9a9asWfFq7/Btzi5BdAfejnozOnnor4bDF+vWrStevnxZ3L59u5g6dWq861jkW42AWpw5cybIvcKXGF3ATvuYKg8imuLWTeXvGMo0ZgpFY8bgwaEJdrm6atWqKPUODxBd4NOnT1EqimXLlkXJqYLZA+zbt8+DQwXWt5YuXRql3uEBogs8ffo05ENDQ8WCBQuCPGiwEm0lMSvIwRLs0qVLQX7//n3InTQPHz4MOb41c+bMIPcSDxBd4P79+yFnPe1UQ3DYunVrcePGjfD369evQ+6kuXv3bsjHzbca0b4pfLs8PDz891v6hnHjnREuXLgQvmHV/XPnzsU7I7x9+/bv86T169eHa4OC9JLefDPPN/T0Bdf5Zn4i6IsdDx8+HNqjNmM32opN1eZug73xEZLtJ/kM/QW0T3Ir8E2/dKJMyhGUd+LEib+24H55lwTdbZ9od6UOlMXnpYvqoM66ZdAvjA+1kUSfYSv9XR5TdaB+ylC5tMlC2+24TundNEDg2LbhJDoAKAxF7D0lGQHly8+TeG4QQE/pRF+l+ovENeu4vUZ2IOFscgTab9vLQOk2dvDghEIDQO1pJ5Aq6NikOijL1q2EvtLfDkKbyoOpDM9rcNkXHjamfq6jj+pJwT2NH1sG11WGksZTXSjDBj0l+SD6le+R0MlSGSDk7IostjMBpaxRbaV8VoNH0ZTGWYO1S065dlKngQrnphz6Cf3I0R19y4bm+nigQUTbZCuLtev/oo3Uq36xWH/oJDjo7aoBgU3pe+qk/6mHv+0sllkDfsRnKAdssK/yC8pSXeUBBaqb+9SfwpaR+gz31RZSK6hsErqjq8pBR/rL6i2/1Wf4W1TWTGHWqBqYFIZMA2iMsEpheNsIYQdMu0ykAGHfIvSHnFXQ2d2qqx0U5Km/3DZh+7O8fJzIoI/1L/oXHbAJcnng2YGCreiXclBSwKqylWzO89b/LWoLn0mhcUB9uTK436wtKfA5yle5NvApOJT1tj5g+7SlUapCUCqlmA0QJD5fRh2T67h+Az2kb9khhe63amjAWDxbDsZ1kaNirxzWOdqpY6JgdU292W2AIDFwyvAs91LPgx1sKf8WagupjC2j/AIV9sVSVU8dbH3ol9Lb9o2tr6UAYZVOVWIbgkOn4Dr3cwboJ6wRq94m+kw7AULPklp1FN4SejY3ewDZNWezfkG65mxhA2FqKWVfcLn+0uyBZKfiZaoChJ2B5CgvCzqhmd5gx671s5a2OfVjmoYjFStXrgyy5ePHj1EqiqNHj0ZpFE4cvnr1KsiDcOLwxYsXUSqKY8eOTbgDP5cvX45SUaxduzZK/yK79vM27ePHj6M0ciQ5ZYs3b95EqSj27t0bpVH4IZnIHXjT+Q3GQNW5hNyPqriuMrZs2RLyFB8+fIhSUcydOzdK7SG9GwEpqTfYsTt//vwotXAOwhpg586dURrLgwcPQk5DNm7cGGRLHQP0EzrEAps2bYrSWOxR2cWLF0epPo0paMhxyB07dgS5LtpDb0wrs8588+bNKBXFihUrotR/6LAabN68OUpjUX803uDJAPLkyZOQ47+pA292DDQLpnoRYjeLHQNVR6evXLkScp7v9MUjvQlIubK+fv0apaKYM2dOlFoIENYAucHd7FBHMwPU5eTJk8nz/+2kZr8ZqEL6NqaT2Y63R2XbGYAYtTHTC79ZaNVR5KT8D4Yc169fj9JYx+g3dFgt51sE6p8/fwY5N3tt5r/2LTt9+vQo/UtVILEzg2nTpkVpLLRVtut0Vvfly5e/elcFJOlefpnUDhB2mpIygG3IokWLQl6mmQH6CaaKjTVokNesWRPyFNeuXQs5HZ+aVY0nOPLZs2eDXDXL6Ae03Mv5lg3U8+bNi9IodZa/v379ilK6DHHr1q0o5WczVRw4cCBKnc/q7DI491sOxq5037VrV8hF7QDRbHDbhixfvjxKo9hGdPr9w/79+8NbtRup6jcDVdipol2zWdBZ681yx483DIjt27eHgA/9HLTrzA7scjD1/dm9e/ei1PnyV0GXmWWrM+Xz58+PGUudzuqs3rkXwNWrV0OOL5SXsbUChDVAbnbQzADfvn2L0mj0xUmZ4tt1er+g5RJMnjw5SmM5depUyFlHEtTGC/q5zLZt28JafMqUKeFv+1+c+C9Z/fQ/LZ49exal/JvdLgdT2DW4BjV+iX+q/6qWFYIBrrFy5MiRkOf4/ft3lEagvkOHDhUHDx6MV0YHdbktdWFpWgXlHT9+PMjU+88ytvEWbQpbPnyUlNtyaQyCcJ88hd1qYQuHLSI+S+rHvXe7jYU+ZXR+oRGVWz4h2C1kE5L222kLbZeddJ/tL+zAWY7xbHM72K3HFHb7MrfNZ+3J5/Fz+sGebeE613Ll0Ge6n9uSttuX8n2SDjBx346VXFvqwLMqh5RCemfP8MS8klYMkKvI7skr9WtwgLIe2hMnl4E5lDKeA806o02235HtPRyxn4IDaFDi7ClsP+QOJtmXoFLKl23gt2Uhqx1VZ06g3OdKKi9lt1aDA5TLwS9ld4KO2pELmlArQODoFESBKeoYAGgIn1E07NfgoDcFHY6+BFA5h/qpmZP0Cton+5GX32zoovvo0W/BgYCsfs85uvyOpEBeBl/U2zTVTxYGV8rm1JMr30Jd9qWb6ne1uVlbquA5yqCdlGcDE9eoN7ciEP4/KR1nQOE7Cw7BNQJf21/G197FcBynv9AJ2apt+GZ4gHCcAcTuDOa24evgAcJxBhC79dvJWQoPEI4zgOh3UdDJCVkPEI4zgOjUMnRyENEDhOMMGBzx/xx/JwQLFy4MP3BsB9/mdBwni88gHMfJ4gHCcZwsHiAcx8lQFP8F73TXM71N6EMAAAAASUVORK5CYII=;" vertex="1" parent="1">
          <mxGeometry x="19.68" y="87" width="180.63" height="26" as="geometry" />
        </mxCell>
        <mxCell id="Faq8xng280zrM9as-v0_-30" value="" style="shape=image;verticalLabelPosition=bottom;labelBackgroundColor=default;verticalAlign=top;aspect=fixed;imageAspect=0;image=data:image/png,iVBORw0KGgoAAAANSUhEUgAAADsAAAAuCAYAAACWPmGbAAAAAXNSR0IArs4c6QAAAARnQU1BAACxjwv8YQUAAAAJcEhZcwAADsMAAA7DAcdvqGQAAAcaSURBVGhD7ZpLTxRrEIaLmyKCoCiCihdQUZGoERFjUMQLXgLElUJIXBv+xNmw4C+QEFxIjDtcgCw0KBFDjAEl4BVUUFBRQVRAFDnHp0KddMhMT4PHsxjnTSY9Mv11fW/VW5evY9jfPyF/CMJnrn8EQmSDFSGywYoQ2WBFiGywIkQ2WDHn2fjHjx8yNjYm/f398ujRIxkcHJTR0VFZsGCBbN68WXbs2CFJSUkSGxs7s0JkampKBgYG5NmzZ7rm06dP8u3bN4mKipLVq1fL1q1bZd26dbJixYqZFSJsi/vevn0rPT098vLlS3nz5o3+FhMTozawt3HjRomPj1f7gTAnshD98uWL9PX1SWtrqzQ2Nsr9+/fl9evXsmjRIjl27JicPXtW9u7dK2vWrNENf/36VT58+CB3796VmzdvSlNTk97Pc9j0zp075eTJk3LkyBH9HhkZqXYmJyelt7dX7t27J9evX9f1Dx480H0sW7ZMMjIy5Pjx41JYWKikly5dqr+5IXLm6gkjIyNq8NKlS9LR0aGkiSqbm5iYkM7OTo1WSkqKfiB669YtuXbtmv5GZIeGhvRec8TDhw/1udHR0ZKYmCirVq2S4eFhVcDVq1elra1NXr16pQ4z4KjHjx+rg6enpzWyXshG/PUTM9/9AslhAO+2tLRIe3u7GklPT5fFixdLRESESnt8fFyvBw4ckOXLl6tDuP/OnTtKDult2bJFSSE7SOOsd+/eSWpqqiQnJytpHNDQ0CBPnz7VCKMSZL527Vq1ix32w3pSBCWxPhA8kf38+bPm3MWLF9XbGC4qKpKKigqV1Pfv39X73AcpZIkDamtrpaurS8LDw+XMmTNy7tw5KSsr003zN/IQsgCi5Dnrbty4IdXV1eqY4uJiXcczc3JyNIdJA4jiWFSFlHF8IHiqxngPb1JA9uzZIyUlJXLw4EGVKhGMi4vTzbNRrkQGFVC8yKfy8nLJzc2V9evXa1S3bdumz1myZMmMBdGChwrq6uqUDDZOnToleXl5smHDBo1cWlqaPo/vpAtRZm9cvcAT2bCwMC0cVE0KydGjR2X79u2aMwsXLlTD3MMVeXZ3d2tEKUCQOn36tEaJ3OI+nMSmSQEDyqEYkeOoo7S0VA4fPiyZmZm6jqgnJCRo9V65cqU6lmfhXK5e4IksEUAm5OKhQ4fUqC8Y2SdPnqikiShrII2z3EAOIkmkio3s7GxVjRuwh8Mh7gWeyPJQCBMRqqWzp5FzVErkxIf8ZZO0hl27dmlxgajT+1RhnAE5A8+kgCHb3bt3a8pQrJwg4vRePlaFifTs+/zhlyYojJNf5BsVm7xmI/v375cTJ07ohp2OMXAPFZg1BnIZqefn52tO+wIEWUeRwlE2WDgHGDf8EllgkxEbJ/pUWqYaIooifAGy9FvaiiErK0uLHv2SPJwNFIMacC5kUREKsvbnBfMma8YxzMb5N22I6ECY7/5yiSGCSg1Z5M19FD/ylcruC7Qa0oXIkjpEGTVQqakJXjBvshhkZoWwgWju27cvYGFhw6gBAuQzm6V3owgKji9gj4mN3mpABaz77WSRIrMrV4PlnbN/+gJqYC05Tr7Rf8lvGyp84ePHj/L8+XMli8ypBdj7XwoUJImOM7K0JDbulkMUNSdZ1iBhZO8GpA9ZWhQOwQYKshHTC+ZNFpJUYYzjaeRnnvYnRXKUvEOSSJiKyqbJ8UAV9f379/8eD7mXKuw8EnrBL8sY0kgKL/MhUr7aDaC/ciaFLAWNKJuM/UmfQoSTKILYw7ms2bRpU8DaMBvzJmvHPXKJAkELYIxzA/lmx0ID1Ze1/sjiFI581s8tz1nz28nS3yBKRWUTeJ2cYThHxm4gKuQ56w1GlmnIF7CHilAQtpA+9kgX1qAOejzPra+v1+Mn+8JJszFnsjwYKULW8o7DAGOkv5nZ4CRr/ZUNu8kYsiiBiBosbVAUpHgeh4gLFy7I7du3Nb+d05lhXmSZmnigAU9TZALJig0jYyJFf6WSssbt1IJDka/zTQV5TP5b7718+bJcuXJFI8pzcZyvg8ecySIlDt0UDAPV140sUjM5snE2yShpZAMBZzgdQp1Ars3NzfpOi3db5DQtjHQiNf4Tsnj0xYsX2isNRJZJxl/OQpZ1eN5J1g7/bpGlNVF5ncWPaNbU1EhlZaVUVVXpkZJWdP78eZ3g/B375iVj5lqTMXnK6QMDvrwJyGty3IZ/ZEjeMV5Cwo2s1QMOCjaKohLkTc4yYvJGg1czzMlI2NdBAsyZLCBSNgxwHMPzblMM5JAwmySaSA0lEA2IuJG1YsT7aF6d8oaEtbyi4YDP33i/VVBQ4DdXDXN+SU5F5a0feUOUbXLCuL/JCbK0DiKLjCFNxIgsRAJVcUDFZb11AWRKvzVl8d2NKAj9b5lgRYhssCJENlgRIhucEPkH4GRb2TtsTAsAAAAASUVORK5CYII=;" vertex="1" parent="1">
          <mxGeometry x="97.18" y="155" width="25.65" height="20" as="geometry" />
        </mxCell>
        <mxCell id="Faq8xng280zrM9as-v0_-31" value="" style="shape=image;verticalLabelPosition=bottom;labelBackgroundColor=default;verticalAlign=top;aspect=fixed;imageAspect=0;image=data:image/png,iVBORw0KGgoAAAANSUhEUgAAAHsAAAAnCAYAAAAvizfzAAAAAXNSR0IArs4c6QAAAARnQU1BAACxjwv8YQUAAAAJcEhZcwAADsMAAA7DAcdvqGQAAAVISURBVHhe7ZxLSuxMFMfLbwfqBkSdCIoTXzgQHPgYOlAUd6BuQNyBrkDBqahzFR/gwAeooCgoOlBX4APcgDe/ss79qmPSnepU3yYkPyhyuhPr5NT/VKpO+nIbvgNUQS74zxwLckAhdo4oxM4Rhdg5InNit7e3q4aGhr+tqanJnCmoRObEfn5+VsvLy+aTUqOjo8YqqEQmH+ODg4PGUmp4eNhYBZXIpNhfX1/GUmpgYMBYBZXIpNj39/f62NjYqLq7u7VdUJlMin18fKyPxXrtRibFPjg40MdivXYjldjv7+9qbW1NjY+Pl5RCMzMzamtrS62srOjPd3d35i/Sc3Z2Zqz/12v6x6fcAzb35gP89fb26n4p+15fX82Zn/iJUcpBrtvb2zNn/SBjSP/z8/Pm21Lsa7Bj4YeQari9vf1ua2vjR5TvpaWl75eXF/09x56eHv29tLe3N33OB0HZpfsM1mv9eXNzs8SXNO4hLVF9z83N6XPEH45TGud8gK9w36urq+bsD+FrTk9PzZnfVCU2wTDYdM6AhNnd3f3r3Meg20xPT+t+OeKH+5ABCCca56tFhJa+pd+xsTGdvCQ69yBJTsKLX0mINMgYIh7+ZLzt8RSf3KtcX25iOYtNZxI4wUbBDXKexg35RIJmQLHDs8iejTwFqgWR7URGZPokZuwoQcUviZAW7t2+f3sGg4gbNdnicBZbHqM0yeowtthpZlcYhJV+aVGB2r7TiB1GxEZI7Cjsp4pvRFwacZPorhPJ+a5kZsXNarATwud6bc/auAGvldjSJ/HHJbkkBM03jKP0TYuLvxxOu3F2mp+fn9qemJjQxyikDg4yXTU3N2vbBycnJ8ZSJe/Ha41dTSwuLqrW1lbzqZSrqyt9JG7fMI7BU0XbHDc2NrTtgpPY5+fnxlKqr6/PWKVQjkgd7Pulx+HhoT4ymHFvzh4eHoylVGdnp7HScXFxYSylJicnjVUKcctEoASrBZJEHx8fVU0iJ7Gvr6+NpWKz++joyFhKdXV1GSs91LfB41PbU1NT+hiFPQv7+/uNlQ7pkxkVF/fl5aWxlBoaGjKWP0gmiZ+ksuv9pHh9g8YN2YV/3OyvhqenJ2OV/uoVhpc5EOxevS0h8kQp96Ta2dnRx2BNVyMjI9r2ycLCgrF+kCXDBa9i2zdUbhZUg72EdHR0GKsUhJZH6ezsrD6mxX6itLS06GMYklySjDXd5z4FeCtGwq2vr+tkAnv/khizUUuEvdsM77LZ+VJ6SD1o7xbZRYfrUq7lOna3SZDraXFQFnG+XEni6tcueeJ291J90Gdc9eHqV5AKREpYqqBwP5SkSXbnTmJHvSWiDOF7nGNLQhAc8HKCz+Ga2E6cJMi1tKgBlSTDb7lyz9WvHXOU2FLqEX+516QufrkGcUVoO3llPGnYxErM5UphwUlsxCQocSbNDtQeHGlhocEleLt2piGsCIpfyXb6LCc0uIotM5LGk0PixI/MaPv7OJL6jYrVBg3s87RKCS44iQ0EJQOAyPbAA7YExnVxb9CkDwaqEiQLvjiSzfbA0RA7zk8YF79g+6DZyU5fCJ5koJP6lZmLn7hlQ8ZD7iuJf3AW2xcyYHEB1QoXv/Ysw06Di99aURexZS0i25NmpQ9c/SKMiJSGesUb5p+LzTLAI+hfB16NX9kL8DfVUq94o/BaZyclWLfU/v6+93q0Eq5+5WVK2tef9Yr3F0b0ghDMSIaHVs911id1mdlZ4PHx0VhK3dzcGCvbFGLHYL+O3N7e/vWPDbNI8T8v5IhiZueIQuwcUYidIwqxc4NSfwBcwkB2XRlxdgAAAABJRU5ErkJggg==;" vertex="1" parent="1">
          <mxGeometry x="62.699999999999996" y="15" width="94.62" height="30" as="geometry" />
        </mxCell>
      </root>
    </mxGraphModel>
  </diagram>
</mxfile>
